<svg width="70" height="70" viewBox="0 0 70 70" fill="none" xmlns="http://www.w3.org/2000/svg">
<g filter="url(#filter0_d)">
<circle cx="35" cy="22.0558" r="16.7999" fill="#60F060"/>
</g>
<path d="M40.25 22.0559C40.25 23.4482 39.6968 24.7836 38.7123 25.7682C37.7277 26.7527 36.3923 27.3059 35 27.3059C33.6076 27.3059 32.2722 26.7527 31.2876 25.7682C30.3031 24.7836 29.75 23.4482 29.75 22.0559C29.75 21.7566 29.7815 21.4644 29.8357 21.1809H28V28.1756C28 28.6621 28.3937 29.0559 28.8802 29.0559H41.1215C41.3546 29.0554 41.5781 28.9625 41.7428 28.7974C41.9075 28.6324 42 28.4088 42 28.1756V21.1809H40.1642C40.2185 21.4644 40.25 21.7566 40.25 22.0559ZM35 25.5559C35.4597 25.5557 35.9149 25.4651 36.3396 25.289C36.7643 25.113 37.1502 24.855 37.4752 24.5299C37.8002 24.2047 38.058 23.8187 38.2338 23.3939C38.4096 22.9691 38.5001 22.5139 38.5 22.0541C38.4998 21.5944 38.4092 21.1392 38.2331 20.7145C38.0571 20.2897 37.7991 19.9039 37.474 19.5789C37.1488 19.2539 36.7628 18.9961 36.338 18.8203C35.9132 18.6444 35.4579 18.554 34.9982 18.5541C34.0697 18.5543 33.1793 18.9234 32.523 19.5801C31.8666 20.2368 31.498 21.1274 31.4982 22.0559C31.4984 22.9844 31.8675 23.8747 32.5242 24.5311C33.1809 25.1875 34.0715 25.5561 35 25.5559ZM39.2 18.3809H41.2982C41.4376 18.3809 41.5713 18.3256 41.6701 18.2272C41.7688 18.1288 41.8245 17.9953 41.825 17.8559V15.7576C41.825 15.6179 41.7695 15.4839 41.6707 15.3851C41.5719 15.2864 41.4379 15.2309 41.2982 15.2309H39.2C39.0603 15.2309 38.9263 15.2864 38.8275 15.3851C38.7287 15.4839 38.6732 15.6179 38.6732 15.7576V17.8559C38.675 18.1446 38.9112 18.3809 39.2 18.3809ZM35 5.25586C30.5443 5.25586 26.2712 7.02585 23.1206 10.1765C19.9699 13.3271 18.2 17.6002 18.2 22.0559C18.2 26.5115 19.9699 30.7846 23.1206 33.9353C26.2712 37.0859 30.5443 38.8559 35 38.8559C37.2062 38.8559 39.3908 38.4213 41.429 37.577C43.4673 36.7328 45.3193 35.4953 46.8794 33.9353C48.4394 32.3752 49.6769 30.5232 50.5211 28.4849C51.3654 26.4467 51.8 24.2621 51.8 22.0559C51.8 19.8497 51.3654 17.665 50.5211 15.6268C49.6769 13.5885 48.4394 11.7365 46.8794 10.1765C45.3193 8.61644 43.4673 7.37896 41.429 6.53468C39.3908 5.6904 37.2062 5.25586 35 5.25586ZM43.75 28.8616C43.75 29.9309 42.875 30.8059 41.8057 30.8059H28.1942C27.125 30.8059 26.25 29.9309 26.25 28.8616V15.2501C26.25 14.1809 27.125 13.3059 28.1942 13.3059H41.8057C42.875 13.3059 43.75 14.1809 43.75 15.2501V28.8616Z" fill="white"/>
<defs>
<filter id="filter0_d" x="0.200073" y="0.255859" width="69.5999" height="69.5999" filterUnits="userSpaceOnUse" color-interpolation-filters="sRGB">
<feFlood flood-opacity="0" result="BackgroundImageFix"/>
<feColorMatrix in="SourceAlpha" type="matrix" values="0 0 0 0 0 0 0 0 0 0 0 0 0 0 0 0 0 0 127 0"/>
<feOffset dy="13"/>
<feGaussianBlur stdDeviation="9"/>
<feColorMatrix type="matrix" values="0 0 0 0 0.0658854 0 0 0 0 0.0730469 0 0 0 0 0.1375 0 0 0 0.08 0"/>
<feBlend mode="normal" in2="BackgroundImageFix" result="effect1_dropShadow"/>
<feBlend mode="normal" in="SourceGraphic" in2="effect1_dropShadow" result="shape"/>
</filter>
</defs>
</svg>
