<svg width="71" height="70" viewBox="0 0 71 70" fill="none" xmlns="http://www.w3.org/2000/svg">
<g filter="url(#filter0_d)">
<circle cx="35.4" cy="22.0558" r="16.7999" fill="#60F060"/>
</g>
<path d="M35.4 5.25586C26.1215 5.25586 18.6 12.7774 18.6 22.0559C18.6 31.3344 26.1215 38.8559 35.4 38.8559C44.6785 38.8559 52.2 31.3344 52.2 22.0559C52.2 12.7774 44.6785 5.25586 35.4 5.25586ZM42.2337 19.0179C42.2407 19.1614 42.2425 19.3049 42.2425 19.4449C42.2425 23.8199 38.9157 28.8616 32.8292 28.8616C31.0307 28.8646 29.2697 28.3481 27.7577 27.3741C28.015 27.4056 28.2792 27.4179 28.547 27.4179C30.0975 27.4179 31.5237 26.8911 32.656 26.0021C31.966 25.9886 31.2974 25.7601 30.7434 25.3485C30.1894 24.937 29.7777 24.3628 29.5655 23.7061C30.061 23.8003 30.5715 23.7806 31.0582 23.6484C30.3093 23.4969 29.6358 23.0911 29.152 22.4998C28.6681 21.9084 28.4037 21.1679 28.4035 20.4039V20.3636C28.8497 20.6104 29.3607 20.7609 29.9032 20.7784C29.2011 20.311 28.7041 19.593 28.5138 18.7713C28.3235 17.9497 28.4543 17.0863 28.8795 16.3579C29.7106 17.3799 30.7472 18.2159 31.922 18.8119C33.0968 19.4079 34.3836 19.7505 35.6992 19.8176C35.532 19.1077 35.604 18.3623 35.904 17.6975C36.204 17.0327 36.7153 16.4856 37.3584 16.1413C38.0014 15.7971 38.7402 15.6749 39.4598 15.7938C40.1794 15.9127 40.8396 16.266 41.3377 16.7989C42.0783 16.6523 42.7884 16.3807 43.4377 15.9956C43.1909 16.7623 42.6742 17.4134 41.9835 17.8279C42.6395 17.7489 43.28 17.5725 43.884 17.3046C43.4403 17.9694 42.8815 18.5496 42.2337 19.0179Z" fill="white"/>
<defs>
<filter id="filter0_d" x="0.600098" y="0.255859" width="69.5999" height="69.5999" filterUnits="userSpaceOnUse" color-interpolation-filters="sRGB">
<feFlood flood-opacity="0" result="BackgroundImageFix"/>
<feColorMatrix in="SourceAlpha" type="matrix" values="0 0 0 0 0 0 0 0 0 0 0 0 0 0 0 0 0 0 127 0"/>
<feOffset dy="13"/>
<feGaussianBlur stdDeviation="9"/>
<feColorMatrix type="matrix" values="0 0 0 0 0.0658854 0 0 0 0 0.0730469 0 0 0 0 0.1375 0 0 0 0.08 0"/>
<feBlend mode="normal" in2="BackgroundImageFix" result="effect1_dropShadow"/>
<feBlend mode="normal" in="SourceGraphic" in2="effect1_dropShadow" result="shape"/>
</filter>
</defs>
</svg>
